<svg xmlns="http://www.w3.org/2000/svg" width="3000" height="986" viewBox="0 0 3000 986" version="1.1"><path d="" stroke="none" fill="#000000" fill-rule="evenodd"/><path d="M 2151.297 311.066 C 2146.785 311.503, 2140.260 312.569, 2136.797 313.435 L 2130.500 315.010 2122.111 319.123 L 2113.721 323.235 2106.522 330.368 L 2099.323 337.500 2095.861 343.500 C 2089.498 354.527, 2086.074 364.939, 2084.083 379.322 L 2083 387.145 2083.003 481.822 L 2083.006 576.500 2084.109 585.500 L 2085.211 594.500 2087.665 603 L 2090.118 611.500 2094.152 619 C 2096.370 623.125, 2100.185 628.841, 2102.629 631.702 L 2107.072 636.904 2114.572 641.920 L 2122.071 646.935 2130.285 649.592 L 2138.500 652.249 2151.500 652.726 L 2164.500 653.203 2171.122 651.646 C 2174.764 650.789, 2180.277 648.968, 2183.375 647.598 L 2189.006 645.107 2194.475 639.935 C 2197.482 637.091, 2201.418 632.464, 2203.222 629.654 L 2206.500 624.545 2207.211 628.523 C 2207.602 630.710, 2208.277 636.325, 2208.711 641 L 2209.500 649.500 2225 649.500 L 2240.500 649.500 2240.500 559.500 L 2240.500 469.500 2199.500 469.500 L 2158.500 469.500 2158.228 489.372 L 2157.957 509.243 2159.101 510.622 L 2160.245 512 2178.122 512 L 2196 512 2196 544.818 L 2196 577.637 2194.390 583.068 C 2192.132 590.682, 2189.500 595.502, 2184.836 600.562 L 2180.813 604.926 2175.369 606.963 L 2169.925 609 2161.641 609 L 2153.356 609 2148.839 607.461 L 2144.321 605.921 2140.330 602.086 L 2136.338 598.251 2134.116 593.524 C 2132.894 590.925, 2131.456 586.424, 2130.919 583.522 L 2129.944 578.246 2130.222 478.373 L 2130.500 378.500 2132.500 373.618 L 2134.500 368.736 2138.372 364.326 L 2142.244 359.916 2146.372 357.708 L 2150.500 355.500 2162.500 355.500 L 2174.500 355.500 2178.545 357.666 L 2182.590 359.831 2186.638 364.223 L 2190.686 368.615 2192.941 375.058 L 2195.196 381.500 2195.729 399.500 L 2196.263 417.500 2197.381 418.235 L 2198.500 418.969 2218.500 418.969 L 2238.500 418.969 2239.911 418.076 L 2241.321 417.184 2240.669 399.342 L 2240.016 381.500 2238.128 372.500 L 2236.239 363.500 2233.092 355.368 L 2229.946 347.237 2225.053 340.270 L 2220.161 333.304 2214.433 328.198 L 2208.704 323.092 2202.102 319.669 C 2187.909 312.311, 2169.913 309.263, 2151.297 311.066 M 1133.908 324.902 L 1129.183 329.803 1121.796 344.652 C 1115.671 356.964, 1110.224 368.863, 1104.928 381.500 C 1104.467 382.600, 1103.425 385.842, 1102.613 388.703 L 1101.135 393.907 1102.107 397.424 L 1103.078 400.941 1105.261 402.471 L 1107.445 404 1112.973 403.987 L 1118.500 403.975 1124.202 401.082 C 1127.339 399.492, 1132.577 396.134, 1135.844 393.620 C 1139.110 391.107, 1145.094 387.245, 1149.141 385.039 L 1156.500 381.028 1162.095 381.014 L 1167.690 381 1169.394 382.883 L 1171.099 384.767 1172.032 393.633 L 1172.964 402.500 1172.982 463.923 L 1173 525.347 1171.976 554.923 L 1170.951 584.500 1169.798 588.500 C 1168.026 594.645, 1166.204 597.838, 1159.619 606.333 L 1153.547 614.167 1153.612 621.600 L 1153.678 629.034 1156.681 632.767 L 1159.685 636.500 1165.205 638.722 L 1170.726 640.943 1180.641 641.737 L 1190.557 642.530 1212.889 641.806 L 1235.222 641.082 1238.742 639.920 L 1242.261 638.759 1246.131 635.263 L 1250 631.767 1250 626.334 L 1250 620.901 1248.450 617.903 C 1247.597 616.255, 1243.572 611.292, 1239.504 606.874 L 1232.108 598.842 1230.626 594.171 C 1229.810 591.602, 1228.678 585, 1228.108 579.500 L 1227.073 569.500 1226.799 478.500 L 1226.525 387.500 1227.984 385.281 L 1229.443 383.062 1232.221 382.451 L 1235 381.841 1238.250 382.544 C 1243.241 383.623, 1249.487 387.109, 1261.329 395.425 C 1274.502 404.677, 1276.273 405.618, 1282.156 406.501 L 1286.787 407.195 1290.249 405.552 L 1293.710 403.910 1295.105 401.296 L 1296.500 398.683 1296.372 393.402 L 1296.244 388.122 1289.503 374.811 C 1275.115 346.400, 1268.567 334.303, 1264.889 329.337 L 1261.066 324.173 1258.207 323.545 L 1255.347 322.917 1252.711 323.920 C 1251.260 324.471, 1247.245 326.695, 1243.787 328.862 C 1240.329 331.028, 1235.250 333.626, 1232.500 334.635 L 1227.500 336.469 1199 336.815 L 1170.500 337.161 1165 335.966 L 1159.500 334.772 1152.254 327.386 L 1145.009 320 1141.821 320 L 1138.632 320 1133.908 324.902 M 1898.500 326.019 L 1890.500 329.868 1884 331.094 L 1877.500 332.321 1834.500 332.521 L 1791.500 332.721 1785.500 334.212 C 1776.917 336.344, 1772.943 338.250, 1769.322 341.969 L 1766.144 345.233 1764.980 350.083 L 1763.817 354.932 1765.462 359.886 L 1767.107 364.839 1774.548 373.169 L 1781.989 381.500 1784.367 386.500 L 1786.746 391.500 1787.873 399.291 L 1789 407.082 1788.950 464.291 C 1788.923 495.756, 1788.495 536.125, 1788.001 554 L 1787.102 586.500 1785.208 592.500 C 1784.167 595.800, 1781.003 603.295, 1778.177 609.155 L 1773.040 619.809 1772.400 625.251 L 1771.761 630.693 1773.413 634.097 L 1775.066 637.500 1777.783 639.500 L 1780.500 641.500 1790 641.374 L 1799.500 641.247 1808.500 639.498 L 1817.500 637.748 1837 637.284 L 1856.500 636.820 1868 638.434 C 1879.907 640.106, 1886.290 641.237, 1894 643.041 C 1896.475 643.620, 1900.749 644.563, 1903.499 645.137 L 1908.497 646.181 1911.758 645.652 L 1915.019 645.123 1918.065 642.954 C 1919.740 641.761, 1922.148 639.141, 1923.417 637.131 L 1925.723 633.478 1928.828 623.489 C 1930.535 617.995, 1932.607 611.025, 1933.431 608 C 1934.255 604.975, 1935.825 599.350, 1936.920 595.500 C 1938.015 591.650, 1939.601 586.025, 1940.444 583 L 1941.976 577.500 1941.988 571.700 L 1942 565.901 1940.551 563.099 C 1939.754 561.558, 1937.970 559.555, 1936.586 558.648 L 1934.070 557 1930.403 557 L 1926.736 557 1923.618 558.956 C 1921.903 560.032, 1916.545 565.192, 1911.711 570.424 L 1902.922 579.935 1896.527 582.987 L 1890.131 586.040 1881.815 587.089 L 1873.500 588.139 1866.500 587.457 C 1862.650 587.082, 1857.475 586.107, 1855 585.290 L 1850.500 583.804 1847.778 581.242 L 1845.057 578.680 1843.425 573.590 L 1841.793 568.500 1841.281 541.754 L 1840.768 515.009 1841.456 509.504 L 1842.144 504 1858.184 504 L 1874.224 504 1879.357 509.605 L 1884.491 515.210 1888.206 517.105 C 1892.539 519.316, 1894.851 519.463, 1898.703 517.773 C 1905.177 514.932, 1907.932 509.462, 1911.429 492.500 C 1913.733 481.325, 1914.481 478.238, 1916.943 469.750 C 1917.461 467.962, 1918.824 463.125, 1919.972 459 L 1922.060 451.500 1922.173 445.478 L 1922.287 439.456 1920.664 436.316 C 1919.771 434.590, 1917.845 432.237, 1916.385 431.088 L 1913.730 429 1910.815 429 L 1907.901 429 1905.001 430.499 L 1902.102 431.999 1897.627 438.249 C 1895.165 441.687, 1891.655 445.939, 1889.826 447.699 L 1886.500 450.898 1881.500 453.173 L 1876.500 455.449 1864 455.475 C 1857.125 455.489, 1849.881 455.155, 1847.903 454.733 L 1844.306 453.967 1843.153 451.436 L 1842 448.906 1842 413.498 L 1842 378.091 1845.750 377.352 L 1849.500 376.614 1871.500 376.557 L 1893.500 376.500 1898.080 378.757 L 1902.661 381.014 1910.580 387.647 C 1920.188 395.694, 1926.305 399.714, 1930.851 400.969 L 1934.271 401.914 1937.505 400.562 L 1940.739 399.211 1942.369 396.883 L 1944 394.555 1944 391.340 C 1944 380.159, 1930.330 341.387, 1922.259 329.674 L 1919.623 325.848 1915.851 323.924 L 1912.080 322 1909.290 322.085 L 1906.500 322.170 1898.500 326.019 M 536 326.337 L 527.500 328.510 522.849 331.735 L 518.198 334.960 516.099 339.296 L 514 343.631 514 347.865 L 514 352.099 515.405 354.800 C 517.378 358.593, 520.734 361.447, 526.212 363.994 L 530.924 366.184 531.557 368.179 L 532.190 370.174 531.546 373.837 C 531.192 375.852, 529.600 383.125, 528.008 390 C 526.416 396.875, 523.469 409.700, 521.459 418.500 C 517.209 437.108, 510.236 466.159, 508.977 470.500 C 508.498 472.150, 507.151 477.325, 505.984 482 C 501.226 501.047, 493.947 528.042, 491.962 534 C 491.504 535.375, 489.723 541.225, 488.004 547 C 486.286 552.775, 484.487 558.400, 484.008 559.500 C 483.528 560.600, 481.031 566.900, 478.458 573.500 C 475.885 580.100, 472.179 588.575, 470.222 592.334 L 466.664 599.167 460.236 604.834 L 453.808 610.500 451.404 614.588 L 449 618.676 449 623.434 L 449 628.191 450.595 630.891 C 451.472 632.376, 453.610 634.551, 455.345 635.724 L 458.500 637.858 465 639.607 L 471.500 641.356 497 641.417 L 522.500 641.479 529 640.089 C 532.575 639.324, 536.763 638.066, 538.307 637.294 L 541.114 635.890 544.057 631.249 L 547 626.608 547 622.869 C 547 620.813, 546.563 617.980, 546.029 616.575 L 545.057 614.020 538.586 607.549 L 532.116 601.079 531.063 597.289 C 529.792 592.711, 529.791 586.240, 531.061 579.500 C 531.580 576.750, 532.446 570.675, 532.988 566 C 533.529 561.325, 534.411 555.250, 534.948 552.500 C 535.485 549.750, 536.223 545.925, 536.588 544 C 536.953 542.075, 537.577 540.050, 537.976 539.500 C 538.375 538.950, 539.285 535.575, 539.999 532 C 540.713 528.425, 541.699 524.709, 542.189 523.741 C 542.679 522.774, 543.482 519.174, 543.974 515.741 C 544.465 512.309, 545.743 505.675, 546.812 501 C 547.882 496.325, 549.491 488.900, 550.388 484.500 C 551.286 480.100, 552.432 474.925, 552.935 473 C 553.439 471.075, 554.386 466.800, 555.040 463.500 C 555.694 460.200, 556.576 456.150, 557 454.500 C 557.424 452.850, 558.319 448.800, 558.989 445.500 C 559.659 442.200, 561.009 435.900, 561.989 431.500 C 562.970 427.100, 564.578 419.810, 565.563 415.300 L 567.354 407.101 568.177 407.609 C 568.630 407.889, 569 409.072, 569 410.238 C 569 411.404, 569.435 413.740, 569.966 415.429 C 570.498 417.118, 571.674 422.325, 572.580 427 C 573.486 431.675, 574.577 437.075, 575.006 439 C 575.434 440.925, 576.726 447, 577.876 452.500 C 579.027 458, 580.846 466.550, 581.919 471.500 C 582.993 476.450, 584.837 485.225, 586.018 491 C 587.199 496.775, 589.316 506.900, 590.722 513.500 C 593.500 526.534, 594.548 532.976, 595.524 543 C 595.873 546.575, 596.541 550.400, 597.011 551.500 C 597.480 552.600, 598.097 554.850, 598.382 556.500 C 598.666 558.150, 599.407 561.975, 600.027 565 C 600.647 568.025, 601.703 574.550, 602.375 579.500 L 603.595 588.500 602.807 594 C 601.975 599.812, 601.191 602.789, 597.224 615.211 L 594.761 622.921 595.433 627.403 L 596.105 631.885 599.525 634.888 L 602.945 637.891 606.723 638.985 C 608.800 639.587, 616.350 640.557, 623.500 641.142 L 636.500 642.204 651 641.584 L 665.500 640.964 670.500 639.620 C 681.391 636.693, 687.436 632.835, 690.589 626.800 L 692 624.099 692 618.454 L 692 612.809 689.783 609.654 C 686.966 605.647, 686.869 605.550, 678.461 598.321 L 671.423 592.270 668.328 586.385 C 665.121 580.285, 662.740 573.828, 658.969 561 C 657.757 556.875, 656.172 551.700, 655.448 549.500 C 654.724 547.300, 652.259 538.300, 649.971 529.500 C 647.684 520.700, 645.428 512.375, 644.959 511 C 643.942 508.020, 633.245 464.320, 629.538 448 C 628.101 441.675, 626.520 434.925, 626.026 433 C 625.117 429.463, 623.634 423.035, 621.930 415.250 C 617.031 392.862, 610.812 368.112, 607.418 357.500 L 603.901 346.500 599.700 340.586 L 595.500 334.673 590.666 331.354 L 585.832 328.035 579.058 326.017 L 572.284 324 558.392 324.082 L 544.500 324.164 536 326.337 M 149.500 325.988 C 140.514 327.057, 131.917 329.538, 123.722 333.427 L 116.378 336.912 109.896 341.915 L 103.415 346.919 98.319 353.210 C 89.870 363.640, 84.530 374.934, 81.058 389.715 L 79.833 394.929 79.839 411.215 L 79.844 427.500 81.930 435.500 L 84.015 443.500 88.714 452.927 L 93.412 462.354 101.456 470.495 L 109.500 478.636 116.818 483.384 C 126.910 489.932, 132.587 493.227, 144.904 499.686 C 167.750 511.668, 175.953 516.833, 183.332 523.883 L 188.165 528.500 190.424 533 C 191.667 535.475, 193.261 539.631, 193.968 542.236 L 195.252 546.973 194.808 555.236 L 194.363 563.500 191.530 569.782 L 188.698 576.064 182.827 581.500 L 176.955 586.936 171.796 588.468 L 166.637 590 161 590 L 155.363 590 149.932 588.391 C 146.944 587.506, 142.665 585.708, 140.422 584.397 L 136.344 582.012 135.084 579.656 L 133.823 577.301 134.906 573.400 L 135.989 569.500 135.994 562.217 L 136 554.934 133.608 550.217 C 130.814 544.707, 129.113 543.058, 123 539.932 L 118.500 537.630 110 537.632 L 101.500 537.634 96.437 540.239 L 91.373 542.845 87.743 546.863 C 83.647 551.397, 81.733 554.772, 79.458 561.472 L 77.887 566.099 78.273 578.299 L 78.660 590.500 79.764 594.424 C 80.371 596.582, 82.537 601.757, 84.578 605.924 L 88.288 613.500 97.004 622.164 L 105.720 630.828 116.110 635.790 L 126.500 640.753 132 641.857 C 145.920 644.653, 148.611 645, 156.382 645 C 172.991 645, 190.461 640.722, 203.930 633.356 C 217.108 626.150, 225.853 617.984, 234.936 604.404 L 239.690 597.295 242.887 589.616 C 244.645 585.393, 246.927 578.464, 247.957 574.219 L 249.830 566.500 250.989 554.500 L 252.149 542.500 250.627 531 L 249.105 519.500 246.968 512.500 C 244.203 503.443, 239.146 494.185, 232.371 485.774 L 226.952 479.048 220.226 473.642 C 210.851 466.107, 203.276 461.671, 177.011 448.334 L 154.157 436.727 148.568 432.341 C 145.495 429.929, 141.633 426.096, 139.987 423.823 L 136.994 419.692 135.883 415.596 L 134.772 411.500 135.224 401.955 L 135.676 392.409 138.520 387.556 C 140.085 384.886, 142.792 381.274, 144.537 379.529 L 147.710 376.356 152.557 374.078 L 157.404 371.800 165.534 371.800 L 173.664 371.800 178.761 373.992 C 181.564 375.198, 184.614 377.021, 185.538 378.043 L 187.220 379.900 186.672 383.700 C 186.371 385.790, 185.819 389.813, 185.446 392.641 L 184.767 397.781 186.417 402.750 L 188.067 407.719 191.490 411.717 L 194.913 415.716 200.116 417.955 L 205.320 420.193 211.910 420.225 L 218.500 420.257 222.190 418.705 L 225.879 417.153 230.337 413.044 L 234.794 408.935 236.824 403.718 C 237.940 400.848, 239.325 395.627, 239.901 392.115 L 240.948 385.730 239.897 378.115 C 238.705 369.473, 237.887 366.753, 234.150 359.009 L 231.500 353.519 224.230 346.272 L 216.960 339.025 207.730 334.572 L 198.500 330.120 192.373 328.564 C 180.232 325.482, 162.635 324.425, 149.500 325.988 M 308 325.980 C 281.978 328.065, 270.240 334.452, 265.917 348.882 L 264.634 353.165 265.900 359.333 L 267.167 365.500 269.535 368.500 C 270.838 370.150, 273.546 373.300, 275.555 375.500 C 277.563 377.700, 280.068 381.385, 281.123 383.689 L 283.040 387.879 283.994 397.689 L 284.948 407.500 284.958 482 L 284.968 556.500 284.012 568.500 C 283.486 575.100, 282.524 583.407, 281.875 586.961 L 280.694 593.421 276.771 602.961 L 272.849 612.500 272.850 618.833 L 272.851 625.167 274.434 628.501 C 276.566 632.996, 280.806 636.384, 287.734 639.130 L 293.500 641.415 315 641.458 L 336.500 641.500 341.500 640.093 C 344.250 639.319, 348.161 637.861, 350.192 636.852 L 353.884 635.018 356.557 631.514 L 359.229 628.010 359.738 621.678 L 360.246 615.345 358.240 610.922 C 357.136 608.490, 353.509 602.931, 350.180 598.568 C 340.821 586.304, 338.902 581.635, 337.002 566.500 L 335.872 557.500 336.186 536.707 L 336.500 515.914 353.500 515.580 L 370.500 515.247 377.342 513.580 C 393.161 509.727, 404.821 503.763, 415.048 494.295 L 420.973 488.810 425.318 482.155 C 433.181 470.112, 437.586 458.101, 439.932 442.308 L 441 435.117 440.996 422.808 L 440.992 410.500 439.612 401.996 C 436.807 384.718, 431.410 371.019, 422.426 358.372 L 418.073 352.244 411.405 346.134 C 403.306 338.713, 398.133 335.712, 386.941 331.942 L 378.382 329.059 368.087 327.513 L 357.791 325.967 338.145 325.553 L 318.500 325.139 308 325.980 M 1397 325.933 C 1384.906 327.695, 1374.436 331.897, 1362.972 339.589 L 1355.950 344.300 1347.225 353.446 L 1338.500 362.592 1333.779 369.658 C 1319.857 390.497, 1313.381 408.851, 1307.901 443 L 1306.697 450.500 1306.685 478.500 L 1306.674 506.500 1307.954 515 C 1308.658 519.675, 1309.909 526.875, 1310.735 531 C 1311.561 535.125, 1312.633 540.486, 1313.119 542.913 C 1314.714 550.897, 1321.082 568.308, 1326.499 579.500 L 1331.824 590.500 1338.085 599.857 L 1344.347 609.214 1352.423 617.488 C 1362.432 627.742, 1369.397 632.928, 1379.318 637.511 L 1387.013 641.066 1394.756 643.018 L 1402.500 644.969 1413.236 644.985 L 1423.971 645 1428.736 643.848 C 1446.883 639.460, 1457.901 633.078, 1471.935 618.824 L 1477.942 612.723 1483.384 604.544 C 1496.218 585.258, 1503.541 566.974, 1508.835 541 C 1510.001 535.281, 1510.177 534.005, 1512.075 517.500 L 1513.225 507.500 1512.702 483.500 L 1512.180 459.500 1511.081 453 C 1510.476 449.425, 1509.506 443.575, 1508.925 440 C 1507.680 432.347, 1506.057 424.502, 1504.992 421 C 1504.574 419.625, 1503.678 416.475, 1503.002 414 C 1502.326 411.525, 1501.417 408.600, 1500.984 407.500 C 1500.550 406.400, 1499.176 402.800, 1497.930 399.500 C 1492.551 385.256, 1482.899 368.420, 1474.136 358 C 1467.879 350.559, 1467.439 350.120, 1460 343.901 L 1453.500 338.468 1445.473 334.299 L 1437.445 330.130 1430.071 328.087 L 1422.697 326.044 1412.599 325.587 L 1402.500 325.131 1397 325.933 M 729.062 329.589 C 712.556 331.991, 703.629 335.841, 697.818 343.065 L 694.950 346.630 694.355 351.650 L 693.760 356.670 695.794 361.268 L 697.828 365.866 703.940 372.435 C 707.301 376.048, 710.596 380.241, 711.262 381.752 L 712.472 384.500 712.789 437 L 713.106 489.500 712.109 533 L 711.111 576.500 709.677 581.500 C 708.149 586.827, 705.215 594.443, 701.809 601.919 C 700.661 604.439, 698.660 609.323, 697.361 612.773 L 695 619.046 695 622.122 L 695 625.198 696.643 628.660 L 698.286 632.122 701.893 634.593 L 705.500 637.064 712.500 639.282 L 719.500 641.500 741 641.458 L 762.500 641.415 768.500 639.054 L 774.500 636.693 778.250 632.964 L 782 629.235 782.101 626.368 C 782.157 624.790, 782.126 621.925, 782.033 620 L 781.863 616.500 779.938 612.500 C 778.878 610.300, 775.954 605.800, 773.438 602.500 C 770.923 599.200, 767.695 594.250, 766.266 591.500 L 763.666 586.500 762.898 563 C 762.475 550.075, 762.101 531.925, 762.065 522.667 L 762 505.833 764.496 507.667 C 773.215 514.069, 784.999 537.182, 799.593 576.500 C 802.043 583.100, 804.443 589.400, 804.926 590.500 C 805.409 591.600, 806.832 595.200, 808.086 598.500 C 809.341 601.800, 812.264 608.620, 814.582 613.655 L 818.796 622.810 823.412 627.361 L 828.027 631.911 834.612 635.053 C 842.607 638.869, 845.218 639.681, 855.500 641.546 L 863.500 642.997 870.162 642.999 L 876.824 643 884.374 641.555 C 894.795 639.562, 900.067 636.468, 902.124 631.138 L 903.036 628.776 905.112 631.416 C 907.739 634.755, 912.855 637.373, 921.060 639.576 L 927.500 641.306 947.500 641.399 L 967.500 641.492 974.500 639.279 L 981.500 637.066 984.259 634.485 C 985.776 633.065, 987.728 630.818, 988.597 629.492 L 990.176 627.082 990.176 620.162 L 990.176 613.242 988.663 610.371 C 987.830 608.792, 983.710 603.675, 979.506 599 L 971.864 590.500 970.549 587.408 C 969.826 585.707, 968.748 581.207, 968.153 577.408 L 967.073 570.500 966.410 531.250 L 965.747 492 966.624 492.009 C 967.777 492.021, 978.226 508.958, 993.455 535.500 C 1012.589 568.846, 1026.657 598.934, 1032.963 619.997 L 1035.207 627.493 1039.854 632.136 L 1044.500 636.778 1050 638.525 L 1055.500 640.272 1069.586 640.743 L 1083.673 641.214 1091.586 639.586 L 1099.500 637.957 1103.951 635.216 L 1108.403 632.475 1110.269 629.278 L 1112.136 626.082 1112.678 620.791 L 1113.220 615.500 1112.068 611.237 L 1110.916 606.974 1107.765 603.385 C 1106.031 601.411, 1100.988 597.041, 1096.557 593.674 C 1079.727 580.887, 1080.442 581.790, 1058.598 545.744 C 1050.184 531.860, 1036.928 510.652, 1029.139 498.616 L 1014.978 476.732 1016.233 475.116 C 1016.924 474.227, 1020.437 469.900, 1024.039 465.500 C 1038.777 447.498, 1065.765 412.103, 1075.126 398.500 C 1080.422 390.804, 1091 373.450, 1091 372.458 C 1091 372.194, 1092.013 369.846, 1093.250 367.239 L 1095.500 362.500 1095.500 354.500 L 1095.500 346.500 1093.022 343 C 1089.580 338.139, 1087.295 336.259, 1081.388 333.429 L 1076.276 330.980 1069.280 330.101 L 1062.284 329.223 1054.392 330.019 L 1046.500 330.816 1041.191 332.834 C 1038.271 333.944, 1034.333 336.034, 1032.440 337.478 L 1028.998 340.103 1027.357 343.276 L 1025.717 346.448 1026.343 358.095 L 1026.969 369.741 1025.459 374.825 C 1022.992 383.135, 1014.435 398.207, 1001.267 417.436 C 993.345 429.006, 981.199 445.527, 977.007 450.435 C 970.715 457.801, 967.717 461, 967.102 461 L 966.437 461 966.714 431.750 L 966.990 402.500 968.043 391 C 968.622 384.675, 969.567 375.522, 970.144 370.661 L 971.193 361.822 969.988 355.436 L 968.783 349.049 965.997 344.656 L 963.210 340.262 959.664 337.557 C 957.714 336.070, 953.735 333.947, 950.822 332.840 L 945.526 330.828 937.102 329.959 L 928.678 329.090 921.089 330.042 L 913.500 330.995 907.364 334.004 L 901.227 337.014 898.635 340.412 L 896.043 343.810 894.889 348.155 L 893.736 352.500 895.988 357.270 L 898.239 362.041 902.538 365.824 C 904.902 367.905, 907.745 371.159, 908.856 373.054 L 910.875 376.500 911.902 385 C 912.467 389.675, 913.451 403.288, 914.089 415.251 L 915.249 437.003 915.321 495.751 L 915.392 554.500 914.084 566 L 912.777 577.500 909.900 589.324 C 908.318 595.828, 906.387 602.578, 905.610 604.324 C 903.196 609.752, 902 614.165, 902 617.649 C 902 621.624, 901.833 621.677, 898.639 618.717 C 897.284 617.461, 892.874 614.656, 888.838 612.484 L 881.500 608.534 873.420 600.517 L 865.340 592.500 859.888 582.500 C 856.890 577, 852.481 568, 850.092 562.500 C 847.702 557, 844.679 550.124, 843.374 547.220 C 842.068 544.317, 841 541.648, 841 541.291 C 841 539.538, 824.585 507.632, 820.581 501.602 C 818.061 497.808, 816 494.205, 816 493.595 L 816 492.487 820.201 491.176 C 826.952 489.069, 834.141 485.220, 841.203 479.931 L 847.789 474.998 853.348 467.741 L 858.906 460.484 862.510 452.684 L 866.114 444.885 868.213 435.692 L 870.312 426.500 870.406 413.500 L 870.500 400.500 869.126 393.500 C 868.370 389.650, 866.432 383.031, 864.819 378.791 L 861.887 371.083 857.121 363.791 L 852.355 356.500 845.313 350 L 838.271 343.500 832.386 340.365 C 821.323 334.473, 810.536 331.763, 789 329.463 L 775.500 328.021 757 328.118 L 738.500 328.215 729.062 329.589 M 1682.324 329.991 C 1674.142 332.136, 1670.575 333.804, 1666.076 337.589 L 1662.912 340.252 1660.790 344.376 L 1658.668 348.500 1658.609 354.500 L 1658.549 360.500 1661.111 366 L 1663.673 371.500 1670.742 379.845 L 1677.811 388.191 1679.857 394.845 L 1681.904 401.500 1682.938 437 C 1683.507 456.525, 1684.271 483.413, 1684.635 496.750 L 1685.297 521 1684.598 521 C 1684.213 521, 1683.199 519.313, 1682.345 517.250 C 1681.491 515.188, 1679.892 511.475, 1678.791 509 C 1677.690 506.525, 1676.116 502.925, 1675.292 501 C 1674.469 499.075, 1673.404 496.600, 1672.925 495.500 C 1661.295 468.798, 1657 458.810, 1657 458.473 C 1657 458.245, 1655.918 455.683, 1654.596 452.780 C 1653.274 449.876, 1650.619 443.675, 1648.697 439 C 1642.311 423.467, 1633.953 403.540, 1632.549 400.500 C 1631.787 398.850, 1629.370 392.987, 1627.178 387.470 C 1624.985 381.954, 1620.446 372.054, 1617.090 365.470 L 1610.988 353.500 1606.015 346.771 L 1601.042 340.043 1596.856 337.011 L 1592.670 333.979 1586.085 331.893 L 1579.500 329.807 1567.500 329.753 L 1555.500 329.699 1549 331.379 L 1542.500 333.058 1538.078 335.779 L 1533.655 338.500 1531.328 342.907 L 1529 347.315 1529.022 351.907 L 1529.044 356.500 1530.880 360.542 L 1532.716 364.585 1538.915 371.542 C 1545.828 379.303, 1547.361 382.098, 1548.924 389.799 L 1550 395.098 1549.995 407.299 C 1549.992 414.010, 1550.496 434.350, 1551.115 452.500 L 1552.240 485.500 1551.085 524 L 1549.929 562.500 1548.945 570.500 C 1546.305 591.942, 1544.695 598.049, 1538.898 608.593 L 1535.651 614.500 1535.611 619.627 L 1535.571 624.754 1538.263 628.822 L 1540.955 632.889 1545.335 635.456 C 1547.744 636.868, 1552.142 638.794, 1555.108 639.736 L 1560.500 641.450 1579 641.386 L 1597.500 641.322 1604.977 639.597 L 1612.454 637.873 1616.138 635.802 C 1620.348 633.436, 1623.138 630.001, 1624.828 625.101 C 1626.466 620.351, 1626.264 617.179, 1624.008 612.208 L 1622.060 607.917 1614.035 599.537 L 1606.010 591.157 1604.865 588.329 C 1604.235 586.773, 1603.099 582.575, 1602.341 579 L 1600.963 572.500 1600.023 530 C 1599.506 506.625, 1598.896 479.512, 1598.669 469.750 L 1598.255 452 1598.877 452.011 C 1599.220 452.017, 1600.764 455.504, 1602.309 459.761 C 1605.763 469.278, 1629.476 528.608, 1632.587 535.517 C 1633.829 538.277, 1635.818 543.001, 1637.006 546.015 C 1638.194 549.029, 1639.524 551.946, 1639.961 552.498 C 1640.398 553.049, 1641.083 554.568, 1641.484 555.873 C 1644.114 564.437, 1662.580 600.970, 1669.851 611.995 L 1675.453 620.490 1681.785 626.822 L 1688.117 633.154 1695.809 636.814 L 1703.500 640.474 1714 640.828 L 1724.500 641.183 1730.381 638.971 L 1736.262 636.758 1740.196 633.204 C 1742.359 631.250, 1744.820 628.314, 1745.665 626.681 L 1747.200 623.713 1747.200 618.074 L 1747.200 612.435 1741.172 599.968 L 1735.143 587.500 1734.062 582 L 1732.981 576.500 1732.010 550.500 C 1730.746 516.645, 1730.755 483.966, 1732.041 441.158 L 1733.082 406.500 1734.718 389 C 1735.617 379.375, 1736.525 365.959, 1736.735 359.187 L 1737.116 346.874 1734.536 342.471 L 1731.955 338.068 1728.723 335.602 C 1724.924 332.705, 1721.513 331.274, 1714 329.425 L 1708.500 328.071 1699 328.091 L 1689.500 328.110 1682.324 329.991 M 341.259 373.649 L 339.018 374.137 337.509 376.291 L 336 378.445 336 418.073 L 336 457.702 337.108 460.881 L 338.217 464.061 341.059 465.530 L 343.901 467 349.584 467 L 355.268 467 359.384 465.805 C 370.897 462.464, 379.227 453.221, 383.092 439.500 L 384.500 434.500 384.493 422.500 L 384.486 410.500 383.134 405.211 C 382.390 402.302, 380.741 397.764, 379.468 395.126 L 377.155 390.330 372.017 384.709 L 366.880 379.088 361.690 376.576 L 356.500 374.063 350 373.612 C 346.425 373.364, 342.491 373.381, 341.259 373.649 M 765.769 380.624 L 764.039 381.139 762.991 384.820 L 761.944 388.500 762.722 425.500 L 763.500 462.500 769.278 462.801 L 775.055 463.101 781.278 461.525 C 784.700 460.658, 789.863 458.802, 792.750 457.401 L 798 454.853 802.878 450.026 L 807.755 445.200 810.628 439.350 L 813.500 433.500 813.828 421.401 L 814.157 409.302 811.222 402.901 L 808.287 396.500 804.075 391.768 L 799.862 387.036 793.195 383.855 L 786.529 380.673 777.014 380.391 C 771.781 380.236, 766.721 380.340, 765.769 380.624 M 1396.287 393 C 1376.440 400.056, 1363.410 421.486, 1358.121 455.769 L 1357 463.037 1356.990 475.269 L 1356.981 487.500 1358.086 497.500 C 1361.860 531.641, 1371.351 555.211, 1385.888 566.540 L 1390.277 569.960 1395.888 572.074 L 1401.500 574.187 1411.033 573.817 L 1420.567 573.447 1426.533 570.546 L 1432.500 567.646 1438.063 561.903 L 1443.626 556.160 1447.798 547.830 C 1453.347 536.752, 1455.498 529.348, 1459.016 509.215 L 1460.114 502.930 1460.099 479.715 L 1460.084 456.500 1458.550 449 C 1453.293 423.289, 1444.713 407.091, 1431.559 398.040 L 1427.334 395.134 1421.199 393.067 L 1415.063 391 1408.282 391.073 L 1401.500 391.146 1396.287 393 M 2350.500 404.928 C 2347.200 405.904, 2342.475 407.736, 2340 408.999 L 2335.500 411.295 2328.939 417.897 L 2322.377 424.500 2318.983 430.481 C 2317.116 433.770, 2314.622 438.842, 2313.439 441.751 L 2311.289 447.041 2310.645 440.874 C 2310.290 437.482, 2310 431.691, 2310 428.004 C 2310 424.318, 2309.708 417.850, 2309.352 413.631 L 2308.703 405.960 2288.102 406.230 L 2267.500 406.500 2267.500 528 L 2267.500 649.500 2289.750 649.769 L 2312 650.038 2312.001 575.769 L 2312.003 501.500 2314.450 491.500 C 2317.400 479.449, 2320.865 470.444, 2325.079 463.878 L 2328.212 458.995 2333.154 454.551 L 2338.097 450.108 2343.798 447.863 L 2349.500 445.618 2361.500 445.559 L 2373.500 445.500 2378.791 447.284 L 2384.082 449.067 2385.041 448.475 L 2386 447.882 2386 429.132 L 2386 410.382 2384.750 408.804 L 2383.500 407.226 2377.246 405.113 L 2370.992 403 2363.746 403.076 L 2356.500 403.153 2350.500 404.928 M 2461 405.012 C 2449.226 407.260, 2441.920 409.959, 2434.354 414.853 L 2428.500 418.640 2423.753 423.925 L 2419.005 429.211 2415.502 436.355 C 2413.575 440.285, 2410.990 447.100, 2409.757 451.500 L 2407.515 459.500 2407.524 528 L 2407.533 596.500 2409.753 604.500 L 2411.972 612.500 2416.083 620.693 L 2420.194 628.886 2425.530 634.120 C 2435.432 643.831, 2445.420 648.637, 2461.761 651.550 L 2469.500 652.930 2483.500 652.930 L 2497.500 652.930 2505.239 651.550 C 2509.495 650.792, 2515.880 649.205, 2519.429 648.024 L 2525.881 645.877 2531.787 642.059 C 2545.136 633.431, 2552.608 622.148, 2557.651 603 L 2559.363 596.500 2559.756 534.500 L 2560.148 472.500 2558.974 463 L 2557.801 453.500 2555.436 446 L 2553.071 438.500 2549.473 432.500 C 2544.870 424.824, 2539.988 419.720, 2532.646 414.905 C 2524.943 409.853, 2517.765 407.255, 2505.057 404.920 L 2494.614 403 2482.557 403.099 L 2470.500 403.197 2461 405.012 M 2851 404.892 C 2843.901 406.828, 2837.236 409.967, 2832.385 413.660 C 2827.818 417.137, 2820.225 427.195, 2816.403 434.830 L 2813.065 441.500 2812.918 437 C 2812.838 434.525, 2812.486 426.650, 2812.136 419.500 L 2811.500 406.500 2791.500 406.500 L 2771.500 406.500 2771.500 587 L 2771.500 767.500 2793.500 767.500 L 2815.500 767.500 2816 694.263 L 2816.500 621.026 2819.485 626.728 L 2822.470 632.429 2828.002 638.082 L 2833.533 643.735 2839.756 646.877 L 2845.979 650.018 2852.240 651.494 L 2858.500 652.970 2868.356 652.985 L 2878.211 653 2884.356 651.409 C 2887.735 650.534, 2892.975 648.658, 2896 647.239 L 2901.500 644.659 2908.537 637.580 L 2915.574 630.500 2918.879 623.690 L 2922.184 616.881 2924.135 607.333 L 2926.085 597.784 2925.739 525.142 L 2925.393 452.500 2923.653 446.015 C 2922.696 442.449, 2920.359 436.298, 2918.459 432.348 L 2915.005 425.167 2910.109 419.833 L 2905.214 414.500 2899.506 411.067 L 2893.797 407.633 2885.149 405.320 L 2876.500 403.007 2867 403.064 L 2857.500 403.120 2851 404.892 M 2588.006 498.750 L 2588.012 591.500 2589.464 601 C 2591.244 612.641, 2593.309 619.686, 2597.208 627.411 L 2600.191 633.322 2605.122 638.536 L 2610.054 643.750 2615.870 646.850 L 2621.686 649.950 2628.093 651.460 L 2634.500 652.970 2644.066 652.985 L 2653.633 653 2659.488 651.918 L 2665.344 650.835 2671.422 647.952 C 2682.085 642.894, 2689.008 635.608, 2696.136 621.946 L 2699.500 615.500 2700.132 629 C 2700.479 636.425, 2700.817 644.188, 2700.882 646.250 L 2701 650 2722 650 L 2743 650 2743 527.981 L 2743 405.962 2720.750 406.231 L 2698.500 406.500 2697.995 493.500 L 2697.490 580.500 2695.663 585.896 C 2694.658 588.864, 2692.679 593.736, 2691.265 596.722 L 2688.694 602.152 2685.608 605.238 L 2682.522 608.324 2678.093 610.283 L 2673.664 612.242 2665.582 612.741 L 2657.500 613.239 2652.111 611.632 L 2646.722 610.025 2643.439 607.521 L 2640.155 605.017 2637.614 599.758 L 2635.072 594.500 2634.044 588 L 2633.015 581.500 2633.008 493.750 L 2633 406 2610.500 406 L 2588 406 2588.006 498.750 M 2838.148 444.913 C 2831.632 447.164, 2828.466 449.428, 2824.366 454.769 L 2821.232 458.852 2818.116 467.011 L 2815 475.171 2815 527.410 L 2815 579.650 2817.489 586.969 C 2821.845 599.775, 2827.299 606.843, 2835.787 610.684 L 2839.500 612.364 2849.500 612.413 L 2859.500 612.461 2864.070 610.366 L 2868.640 608.272 2872.273 604.530 L 2875.907 600.789 2877.983 594.551 L 2880.059 588.313 2879.779 526.406 L 2879.500 464.500 2876.907 459 L 2874.313 453.500 2871.010 450.292 L 2867.707 447.085 2861.659 445.042 L 2855.612 443 2849.556 443.033 L 2843.500 443.065 2838.148 444.913 M 2476.901 445.129 L 2470.301 445.806 2466.258 447.868 L 2462.215 449.931 2458.836 453.878 L 2455.458 457.825 2453.479 463.162 L 2451.500 468.500 2451.500 528 L 2451.500 587.500 2453.306 592.678 C 2454.300 595.526, 2456.405 599.639, 2457.984 601.819 L 2460.854 605.782 2466.677 608.641 L 2472.500 611.500 2483.500 611.500 L 2494.500 611.500 2500.230 608.686 L 2505.959 605.873 2508.874 602.337 L 2511.789 598.800 2513.645 593.150 L 2515.500 587.500 2515.500 528.500 L 2515.500 469.500 2513.769 463.913 L 2512.039 458.326 2508.057 453.802 L 2504.075 449.279 2499.288 447.254 L 2494.500 445.230 2489 444.841 C 2485.975 444.627, 2480.530 444.757, 2476.901 445.129 M 1951 599 L 1951 603 1955.500 603 L 1960 603 1960 618 L 1960 633 1965 633 L 1970 633 1970 618 L 1970 603 1974.500 603 L 1979 603 1979 599 L 1979 595 1965 595 L 1951 595 1951 599 M 1983 614 L 1983 633 1988 633 L 1993 633 1993.068 623.750 L 1993.135 614.500 1996.699 623.750 L 2000.264 633 2002.915 633 L 2005.566 633 2009.226 623.250 L 2012.886 613.500 2012.943 623.250 L 2013 633 2017.500 633 L 2022 633 2022 614 L 2022 595 2016.583 595 L 2011.165 595 2007.458 606.250 C 2005.419 612.438, 2003.436 617.849, 2003.050 618.275 L 2002.350 619.050 1998.631 607.025 L 1994.911 595 1988.956 595 L 1983 595 1983 614" stroke="none" fill="#f7f7f7" fill-rule="evenodd"/></svg>